TITLE ""
FILE "P1Q_t_0788-0796.mp3" MP3
  TRACK 01 AUDIO
    TITLE "P1Q_t_0788-0796_01"
    INDEX 01 00:00:00
  TRACK 02 AUDIO
    TITLE "P1Q_t_0788-0796_02"
    INDEX 01 00:01:08
  TRACK 03 AUDIO
    TITLE "P1Q_t_0788-0796_03"
    INDEX 01 00:01:29
  TRACK 04 AUDIO
    TITLE "P1Q_t_0788-0796_04"
    INDEX 01 00:03:18
  TRACK 05 AUDIO
    TITLE "P1Q_t_0788-0796_05"
    INDEX 01 00:03:40
  TRACK 06 AUDIO
    TITLE "P1Q_t_0788-0796_06"
    INDEX 01 00:06:72
  TRACK 07 AUDIO
    TITLE "P1Q_t_0788-0796_07"
    INDEX 01 00:07:44
  TRACK 08 AUDIO
    TITLE "P1Q_t_0788-0796_08"
    INDEX 01 00:08:63
  TRACK 09 AUDIO
    TITLE "P1Q_t_0788-0796_09"
    INDEX 01 00:09:07
  TRACK 10 AUDIO
    TITLE "P1Q_t_0788-0796_10"
    INDEX 01 00:11:65
  TRACK 11 AUDIO
    TITLE "P1Q_t_0788-0796_11"
    INDEX 01 00:12:15
  TRACK 12 AUDIO
    TITLE "P1Q_t_0788-0796_12"
    INDEX 01 00:16:15
  TRACK 13 AUDIO
    TITLE "P1Q_t_0788-0796_13"
    INDEX 01 00:16:62
  TRACK 14 AUDIO
    TITLE "P1Q_t_0788-0796_14"
    INDEX 01 00:17:70
  TRACK 15 AUDIO
    TITLE "P1Q_t_0788-0796_15"
    INDEX 01 00:18:12
  TRACK 16 AUDIO
    TITLE "P1Q_t_0788-0796_16"
    INDEX 01 00:20:60
  TRACK 17 AUDIO
    TITLE "P1Q_t_0788-0796_17"
    INDEX 01 00:21:05
  TRACK 18 AUDIO
    TITLE "P1Q_t_0788-0796_18"
    INDEX 01 00:25:10
  TRACK 19 AUDIO
    TITLE "P1Q_t_0788-0796_19"
    INDEX 01 00:25:55
  TRACK 20 AUDIO
    TITLE "P1Q_t_0788-0796_20"
    INDEX 01 00:26:72
  TRACK 21 AUDIO
    TITLE "P1Q_t_0788-0796_21"
    INDEX 01 00:27:21
  TRACK 22 AUDIO
    TITLE "P1Q_t_0788-0796_22"
    INDEX 01 00:30:56
  TRACK 23 AUDIO
    TITLE "P1Q_t_0788-0796_23"
    INDEX 01 00:31:01
  TRACK 24 AUDIO
    TITLE "P1Q_t_0788-0796_24"
    INDEX 01 00:35:18
  TRACK 25 AUDIO
    TITLE "P1Q_t_0788-0796_25"
    INDEX 01 00:35:65
  TRACK 26 AUDIO
    TITLE "P1Q_t_0788-0796_26"
    INDEX 01 00:37:33
  TRACK 27 AUDIO
    TITLE "P1Q_t_0788-0796_27"
    INDEX 01 00:37:58
  TRACK 28 AUDIO
    TITLE "P1Q_t_0788-0796_28"
    INDEX 01 00:40:69
  TRACK 29 AUDIO
    TITLE "P1Q_t_0788-0796_29"
    INDEX 01 00:41:13
  TRACK 30 AUDIO
    TITLE "P1Q_t_0788-0796_30"
    INDEX 01 00:46:30
  TRACK 31 AUDIO
    TITLE "P1Q_t_0788-0796_31"
    INDEX 01 00:47:02
  TRACK 32 AUDIO
    TITLE "P1Q_t_0788-0796_32"
    INDEX 01 00:48:09
  TRACK 33 AUDIO
    TITLE "P1Q_t_0788-0796_33"
    INDEX 01 00:48:31
  TRACK 34 AUDIO
    TITLE "P1Q_t_0788-0796_34"
    INDEX 01 00:49:70
  TRACK 35 AUDIO
    TITLE "P1Q_t_0788-0796_35"
    INDEX 01 00:50:12
  TRACK 36 AUDIO
    TITLE "P1Q_t_0788-0796_36"
    INDEX 01 00:54:08
  TRACK 37 AUDIO
    TITLE "P1Q_t_0788-0796_37"
    INDEX 01 00:54:55
  TRACK 38 AUDIO
    TITLE "P1Q_t_0788-0796_38"
    INDEX 01 00:55:74
  TRACK 39 AUDIO
    TITLE "P1Q_t_0788-0796_39"
    INDEX 01 00:56:21
  TRACK 40 AUDIO
    TITLE "P1Q_t_0788-0796_40"
    INDEX 01 00:58:61
  TRACK 41 AUDIO
    TITLE "P1Q_t_0788-0796_41"
    INDEX 01 00:59:05
  TRACK 42 AUDIO
    TITLE "P1Q_t_0788-0796_42"
    INDEX 01 01:04:53
  TRACK 43 AUDIO
    TITLE "P1Q_t_0788-0796_43"
    INDEX 01 01:05:23
  TRACK 44 AUDIO
    TITLE "P1Q_t_0788-0796_44"
    INDEX 01 01:06:48
  TRACK 45 AUDIO
    TITLE "P1Q_t_0788-0796_45"
    INDEX 01 01:06:70
  TRACK 46 AUDIO
    TITLE "P1Q_t_0788-0796_46"
    INDEX 01 01:08:24
  TRACK 47 AUDIO
    TITLE "P1Q_t_0788-0796_47"
    INDEX 01 01:08:45
  TRACK 48 AUDIO
    TITLE "P1Q_t_0788-0796_48"
    INDEX 01 01:12:20
  TRACK 49 AUDIO
    TITLE "P1Q_t_0788-0796_49"
    INDEX 01 01:12:67
  TRACK 50 AUDIO
    TITLE "P1Q_t_0788-0796_50"
    INDEX 01 01:14:01
  TRACK 51 AUDIO
    TITLE "P1Q_t_0788-0796_51"
    INDEX 01 01:14:46
  TRACK 52 AUDIO
    TITLE "P1Q_t_0788-0796_52"
    INDEX 01 01:15:65
  TRACK 53 AUDIO
    TITLE "P1Q_t_0788-0796_53"
    INDEX 01 01:16:13
  TRACK 54 AUDIO
    TITLE "P1Q_t_0788-0796_54"
    INDEX 01 01:18:38
  TRACK 55 AUDIO
    TITLE "P1Q_t_0788-0796_55"
    INDEX 01 01:18:57
  TRACK 56 AUDIO
    TITLE "P1Q_t_0788-0796_56"
    INDEX 01 01:22:51
